<svg viewBox="0 0 500 540" xmlns="http://www.w3.org/2000/svg" font-family="'Segoe UI', Arial, sans-serif">
  <defs>
    <radialGradient id="bg" cx="50%" cy="42%" r="60%">
      <stop offset="0%" stop-color="#eef2ff"/><stop offset="100%" stop-color="#e0e7ff"/>
    </radialGradient>
    <linearGradient id="shieldG" x1="0%" y1="0%" x2="100%" y2="100%">
      <stop offset="0%" stop-color="#3730a3"/><stop offset="50%" stop-color="#4338ca"/><stop offset="100%" stop-color="#4f46e5"/>
    </linearGradient>
    <linearGradient id="shieldSheen" x1="0%" y1="0%" x2="0%" y2="100%">
      <stop offset="0%" stop-color="#ffffff" stop-opacity="0.25"/><stop offset="50%" stop-color="#ffffff" stop-opacity="0.04"/><stop offset="100%" stop-color="#000000" stop-opacity="0.12"/>
    </linearGradient>
    <linearGradient id="ringG" x1="0%" y1="0%" x2="100%" y2="100%">
      <stop offset="0%" stop-color="#6366f1"/><stop offset="33%" stop-color="#4338ca"/><stop offset="66%" stop-color="#818cf8"/><stop offset="100%" stop-color="#6366f1"/>
    </linearGradient>
    <linearGradient id="wordG" x1="0%" y1="0%" x2="100%" y2="0%">
      <stop offset="0%" stop-color="#3730a3"/><stop offset="50%" stop-color="#4f46e5"/><stop offset="100%" stop-color="#3730a3"/>
    </linearGradient>
    <radialGradient id="haloG" cx="50%" cy="50%" r="50%">
      <stop offset="0%" stop-color="#6366f1" stop-opacity="0.18"/><stop offset="100%" stop-color="#4338ca" stop-opacity="0"/>
    </radialGradient>
    <filter id="bloom" x="-60%" y="-60%" width="220%" height="220%">
      <feGaussianBlur in="SourceGraphic" stdDeviation="14"/>
    </filter>
    <filter id="nodeBloom" x="-150%" y="-150%" width="400%" height="400%">
      <feGaussianBlur in="SourceGraphic" stdDeviation="3.5" result="b"/>
      <feMerge><feMergeNode in="b"/><feMergeNode in="SourceGraphic"/></feMerge>
    </filter>
    <filter id="softBloom" x="-40%" y="-40%" width="180%" height="180%">
      <feGaussianBlur in="SourceGraphic" stdDeviation="5" result="b"/>
      <feMerge><feMergeNode in="b"/><feMergeNode in="SourceGraphic"/></feMerge>
    </filter>
    <filter id="textGlow" x="-15%" y="-50%" width="130%" height="200%">
      <feGaussianBlur in="SourceGraphic" stdDeviation="5" result="b"/>
      <feMerge><feMergeNode in="b"/><feMergeNode in="SourceGraphic"/></feMerge>
    </filter>
    <filter id="shieldShadow" x="-20%" y="-10%" width="140%" height="140%">
      <feGaussianBlur in="SourceGraphic" stdDeviation="12"/>
    </filter>
  </defs>

  <circle cx="250" cy="248" r="242" fill="url(#bg)"/>
  <circle cx="250" cy="230" r="155" fill="#4338ca" opacity="0.06" filter="url(#bloom)"/>
  <circle cx="250" cy="248" r="234" fill="none" stroke="url(#ringG)" stroke-width="2.5" opacity="0.8"/>
  <circle cx="250" cy="248" r="221" fill="none" stroke="#6366f1" stroke-width="0.6" opacity="0.3"/>
  <circle cx="250" cy="248" r="209" fill="none" stroke="#4338ca" stroke-width="0.6" stroke-dasharray="4 13" opacity="0.22"/>

  <ellipse cx="250" cy="260" rx="148" ry="158" fill="url(#haloG)" filter="url(#bloom)"/>
  <path d="M250,113 L371,161 L371,291 Q371,361 250,401 Q129,361 129,291 L129,161 Z" fill="#4338ca" opacity="0.14" filter="url(#shieldShadow)"/>
  <path d="M250,108 L372,158 L372,290 Q372,362 250,402 Q128,362 128,290 L128,158 Z" fill="url(#shieldG)"/>
  <path d="M250,108 L372,158 L372,290 Q372,362 250,402 Q128,362 128,290 L128,158 Z" fill="url(#shieldSheen)"/>
  <path d="M250,108 L372,158 L372,290 Q372,362 250,402 Q128,362 128,290 L128,158 Z" fill="none" stroke="#a5b4fc" stroke-width="1.8" opacity="0.55"/>
  <path d="M250,120 L360,167 L360,287 Q360,352 250,389 Q140,352 140,287 L140,167 Z" fill="none" stroke="#ffffff" stroke-width="0.8" opacity="0.18"/>

  <rect x="160" y="193" width="74" height="92" rx="7" fill="#3730a3" fill-opacity="0.45" stroke="#6366f1" stroke-width="0.8" stroke-opacity="0.45"/>
  <rect x="166" y="199" width="74" height="92" rx="7" fill="#4338ca" fill-opacity="0.5" stroke="#818cf8" stroke-width="0.9" stroke-opacity="0.5"/>
  <rect x="172" y="205" width="74" height="92" rx="7" fill="#ffffff" stroke="#c7d2fe" stroke-width="1.2"/>
  <line x1="182" y1="222" x2="236" y2="222" stroke="#4338ca" stroke-width="2.8" stroke-linecap="round" opacity="0.7"/>
  <line x1="182" y1="233" x2="229" y2="233" stroke="#6366f1" stroke-width="2.2" stroke-linecap="round" opacity="0.5"/>
  <line x1="182" y1="243" x2="233" y2="243" stroke="#6366f1" stroke-width="2.2" stroke-linecap="round" opacity="0.45"/>
  <line x1="182" y1="253" x2="220" y2="253" stroke="#6366f1" stroke-width="2.2" stroke-linecap="round" opacity="0.4"/>
  <rect x="182" y="264" width="34" height="15" rx="3.5" fill="#3730a3"/>
  <text x="199" y="274" text-anchor="middle" font-size="8.5" font-weight="800" fill="#e0e7ff">PDF</text>

  <line x1="256" y1="251" x2="281" y2="251" stroke="#a5b4fc" stroke-width="2.8" stroke-linecap="round"/>
  <polygon points="279,245 291,251 279,257" fill="#a5b4fc"/>
  <circle cx="263" cy="239" r="2.2" fill="#818cf8" opacity="0.9"/>
  <circle cx="273" cy="235" r="1.6" fill="#c7d2fe"/>

  <circle cx="331" cy="251" r="8"   fill="#e0e7ff" opacity="0.95" filter="url(#nodeBloom)"/>
  <circle cx="331" cy="251" r="3.5" fill="#ffffff"/>
  <line x1="331" y1="251" x2="311" y2="222" stroke="#a5b4fc" stroke-width="1.3" opacity="0.7"/>
  <line x1="331" y1="251" x2="352" y2="220" stroke="#a5b4fc" stroke-width="1.3" opacity="0.7"/>
  <line x1="331" y1="251" x2="360" y2="251" stroke="#a5b4fc" stroke-width="1.3" opacity="0.7"/>
  <line x1="331" y1="251" x2="352" y2="278" stroke="#a5b4fc" stroke-width="1.3" opacity="0.7"/>
  <line x1="331" y1="251" x2="311" y2="278" stroke="#a5b4fc" stroke-width="1.3" opacity="0.7"/>
  <line x1="331" y1="251" x2="302" y2="251" stroke="#a5b4fc" stroke-width="1.3" opacity="0.7"/>
  <circle cx="311" cy="222" r="5"   fill="#6366f1" filter="url(#nodeBloom)"/>
  <circle cx="352" cy="220" r="4.5" fill="#818cf8" filter="url(#nodeBloom)"/>
  <circle cx="360" cy="251" r="4.5" fill="#6366f1" filter="url(#nodeBloom)"/>
  <circle cx="352" cy="278" r="5"   fill="#818cf8" filter="url(#nodeBloom)"/>
  <circle cx="311" cy="278" r="4.5" fill="#6366f1" filter="url(#nodeBloom)"/>
  <circle cx="302" cy="251" r="4.5" fill="#818cf8" filter="url(#nodeBloom)"/>

  <rect x="155" y="312" width="62" height="20" rx="10" fill="#3730a3" fill-opacity="0.88"/>
  <text x="186" y="325" text-anchor="middle" font-size="9" font-weight="700" fill="#e0e7ff">Summary</text>
  <rect x="223" y="312" width="48" height="20" rx="10" fill="#4338ca" fill-opacity="0.88"/>
  <text x="247" y="325" text-anchor="middle" font-size="9" font-weight="700" fill="#eef2ff">Quiz</text>
  <rect x="277" y="312" width="72" height="20" rx="10" fill="#4f46e5" fill-opacity="0.88"/>
  <text x="313" y="325" text-anchor="middle" font-size="9" font-weight="700" fill="#e0e7ff">Flashcards</text>

  <g filter="url(#softBloom)">
    <line x1="250" y1="94"  x2="250" y2="122" stroke="#6366f1" stroke-width="2"   stroke-linecap="round"/>
    <line x1="236" y1="108" x2="264" y2="108" stroke="#6366f1" stroke-width="2"   stroke-linecap="round"/>
    <line x1="240" y1="98"  x2="260" y2="118" stroke="#818cf8" stroke-width="1.4" stroke-linecap="round" opacity="0.7"/>
    <line x1="260" y1="98"  x2="240" y2="118" stroke="#818cf8" stroke-width="1.4" stroke-linecap="round" opacity="0.7"/>
    <circle cx="250" cy="108" r="4.5" fill="#4338ca" opacity="0.95"/>
    <circle cx="250" cy="108" r="2"   fill="#ffffff"/>
  </g>

  <text x="250" y="466" text-anchor="middle" font-size="30" font-weight="800" letter-spacing="4" fill="url(#wordG)" filter="url(#textGlow)">AI LEARNING</text>
  <text x="250" y="493" text-anchor="middle" font-size="12" font-weight="600" letter-spacing="9" fill="#4338ca" opacity="0.65">PLATFORM</text>
  <line x1="178" y1="504" x2="322" y2="504" stroke="url(#ringG)" stroke-width="1.2" opacity="0.4" stroke-linecap="round"/>
</svg>
