<svg xmlns="http://www.w3.org/2000/svg" width="1024" height="1024" viewBox="0 0 1024 1024">
<g>
<path d="M 716.73 831.40 C713.97,833.16 660.65,834.36 646.50,832.98 C641.55,832.49 632.17,831.60 625.65,830.98 C580.52,826.73 529.67,811.42 487.00,789.24 C458.46,774.41 439.23,761.60 411.39,738.88 C402.28,731.46 376.11,705.69 366.82,695.00 C352.49,678.51 335.24,654.10 323.73,634.00 C312.44,614.30 308.55,606.49 299.33,585.14 C298.54,583.29 297.67,581.99 297.42,582.25 C297.16,582.50 296.97,619.85 296.99,665.25 C297.01,710.64 296.77,748.44 296.46,749.24 C296.00,750.45 294.96,750.54 290.70,749.75 C285.66,748.82 276.85,749.21 272.25,750.57 L 270.00 751.23 L 269.99 586.87 C269.99,479.24 270.34,419.74 271.02,414.50 C273.45,395.79 274.37,390.73 277.99,376.47 C285.05,348.68 296.45,324.05 313.86,299.00 C323.27,285.46 342.18,264.03 344.73,264.01 C345.40,264.00 346.68,262.89 347.57,261.54 C348.45,260.19 349.95,258.83 350.90,258.53 C351.84,258.23 355.74,255.02 359.56,251.40 C363.38,247.77 368.11,243.98 370.07,242.98 C372.03,241.97 374.25,240.41 375.00,239.50 C375.75,238.59 378.11,236.97 380.23,235.88 C382.36,234.80 384.35,233.25 384.66,232.45 C384.96,231.65 385.89,231.00 386.72,231.00 C387.54,231.00 391.12,228.98 394.66,226.50 C398.20,224.02 401.33,222.00 401.61,222.00 C402.90,222.00 415.00,215.71 415.98,214.53 C416.58,213.80 418.59,212.92 420.45,212.58 C422.31,212.23 426.23,210.68 429.16,209.13 C434.06,206.56 441.73,203.96 459.00,199.02 C479.55,193.14 492.54,191.56 520.00,191.58 C543.58,191.60 548.70,192.08 567.92,196.11 C610.52,205.03 644.18,221.40 678.50,249.87 C706.75,273.30 730.64,305.18 745.82,339.73 C752.25,354.36 760.21,378.63 762.02,389.15 C766.14,413.05 766.10,411.61 766.30,544.57 L 766.50 672.64 L 763.80 676.72 C759.77,682.81 754.73,684.18 737.68,683.80 C730.25,683.63 723.89,683.78 723.54,684.13 C723.19,684.48 722.81,715.98 722.70,754.13 C722.51,818.40 722.37,823.74 720.73,826.74 C719.76,828.52 717.96,830.62 716.73,831.40 ZM 532.50 680.83 C535.95,683.86 537.85,685.53 540.05,686.22 C542.76,687.07 545.92,686.45 552.97,685.06 L 553.00 685.05 C555.47,684.57 560.76,683.64 564.75,682.99 C568.74,682.35 572.00,681.49 572.00,681.09 C572.00,680.20 564.35,672.28 556.62,665.17 C553.43,662.24 550.99,659.68 551.18,659.48 C551.38,659.28 556.94,658.00 563.52,656.63 C634.77,641.83 694.68,592.14 723.04,524.32 C752.95,452.83 742.67,370.53 696.01,307.77 C669.44,272.05 628.38,242.03 589.50,229.92 C585.65,228.72 581.60,227.35 580.50,226.88 C577.18,225.46 566.90,222.99 560.00,221.95 C556.42,221.42 551.03,220.55 548.00,220.02 C538.05,218.28 506.16,217.61 495.44,218.91 C470.89,221.88 452.94,226.51 432.00,235.24 C400.79,248.27 369.72,271.47 347.99,297.98 C345.52,300.99 342.87,304.12 342.11,304.94 C341.35,305.75 337.46,311.39 333.47,317.46 C315.55,344.72 302.74,377.98 299.92,404.50 C299.46,408.90 298.60,414.98 298.02,418.00 C296.77,424.48 297.56,462.18 299.15,472.00 C303.05,496.19 308.72,514.26 319.19,535.95 C352.83,605.61 419.69,652.51 496.07,660.03 C511.94,661.59 511.25,661.33 518.75,668.36 C522.46,671.84 528.65,677.45 532.50,680.83 ZM 634.49 804.44 C651.03,805.89 667.96,806.34 670.42,805.39 C671.71,804.90 671.49,804.40 669.25,802.68 C667.74,801.52 663.58,798.06 660.00,794.98 C656.42,791.90 652.18,788.55 650.56,787.54 C648.94,786.53 642.86,781.11 637.06,775.49 C631.25,769.87 619.08,758.63 610.00,750.50 C596.29,738.21 555.83,701.22 544.54,690.65 C541.51,687.82 541.47,687.81 533.00,688.65 C517.62,690.19 496.63,689.51 484.00,687.07 C465.77,683.55 444.19,678.07 435.50,674.75 C413.06,666.18 386.74,652.56 362.50,636.98 C355.48,632.47 354.52,632.21 356.10,635.25 C363.41,649.38 388.07,679.94 407.66,699.15 C469.80,760.09 549.29,796.99 634.49,804.44 ZM 683.81 780.15 L 695.50 790.41 L 696.00 727.45 C696.47,668.71 696.62,664.32 698.32,661.82 C701.98,656.43 703.63,656.00 720.53,656.00 C729.18,656.00 736.98,655.55 738.03,654.98 C739.85,654.01 739.93,652.07 739.96,606.73 C739.98,579.90 739.60,558.88 739.08,558.07 C738.37,556.98 737.51,557.75 735.33,561.44 C733.77,564.07 731.27,567.87 729.77,569.87 C728.26,571.86 725.15,576.20 722.85,579.50 C710.09,597.77 695.37,613.80 677.00,629.40 C671.78,633.84 667.28,637.74 667.00,638.07 C665.02,640.44 640.04,655.55 629.00,661.06 C613.13,668.99 603.38,672.85 587.38,677.56 C580.93,679.45 575.46,681.20 575.22,681.44 C574.73,681.93 575.72,682.85 605.50,709.52 C617.05,719.86 629.20,730.84 632.50,733.91 C638.13,739.15 654.07,753.65 659.89,758.82 C661.33,760.09 664.53,762.79 667.00,764.82 C669.47,766.84 671.64,768.81 671.81,769.19 C671.99,769.58 677.39,774.51 683.81,780.15 ZM 292.21 831.45 C277.95,836.30 263.49,829.10 258.62,814.72 C256.58,808.70 256.57,804.61 258.58,798.71 C261.47,790.25 270.34,783.19 280.96,780.91 C287.67,779.48 294.70,781.76 300.76,787.34 C309.80,795.68 312.47,807.44 307.57,817.44 C304.39,823.96 298.53,829.29 292.21,831.45 Z" fill="rgb(12,157,249)"/>
<path d="M 332.70 462.54 C335.02,463.75 339.62,463.92 359.50,463.51 C372.70,463.24 397.45,462.93 414.50,462.83 C438.62,462.69 446.12,462.35 448.31,461.27 C450.55,460.17 452.60,460.09 458.31,460.91 C462.27,461.47 468.42,461.70 472.00,461.42 C475.58,461.14 481.76,460.67 485.75,460.37 C489.74,460.08 493.00,459.42 493.00,458.92 C493.00,458.41 493.66,458.00 494.48,458.00 C495.29,458.00 496.72,456.82 497.67,455.39 C500.17,451.57 503.95,447.21 508.60,442.80 C512.95,438.66 523.74,433.01 527.34,432.98 C528.53,432.98 530.14,432.57 530.92,432.07 C531.92,431.43 531.05,431.01 527.92,430.63 C520.28,429.69 470.31,428.90 389.00,428.45 C345.83,428.21 307.71,427.75 304.31,427.43 C298.25,426.87 298.11,426.79 297.72,423.68 C297.67,423.29 297.62,423.12 297.58,423.14 C297.68,420.81 297.82,419.02 298.02,418.00 C298.60,414.98 299.46,408.90 299.92,404.50 C300.00,403.75 300.09,403.00 300.18,402.24 C300.42,402.74 301.00,402.53 301.93,402.04 C303.21,401.35 324.58,401.00 364.38,401.00 L 424.90 401.00 L 427.33 397.75 C428.67,395.96 434.70,386.62 440.73,377.00 C465.43,337.60 473.27,325.39 475.26,323.25 C478.62,319.63 483.21,319.01 506.65,319.01 L 528.81 319.00 L 532.01 313.33 C537.07,304.35 544.32,297.41 552.95,293.24 C559.56,290.05 561.64,289.54 569.65,289.18 C579.70,288.73 585.87,290.15 593.94,294.76 C613.18,305.78 620.93,329.15 612.41,350.49 C610.16,356.12 608.22,358.87 602.40,364.63 C595.99,370.98 594.31,372.06 587.34,374.39 C566.82,381.22 546.15,374.05 534.35,356.00 C532.74,353.52 530.88,350.25 530.22,348.73 L 529.02 345.95 L 510.76 346.23 L 492.50 346.50 L 488.22 353.00 C485.87,356.58 480.02,365.90 475.22,373.73 C470.42,381.56 465.07,390.26 463.32,393.08 C461.57,395.89 460.39,398.86 460.71,399.68 C461.21,400.99 467.23,401.10 509.39,400.56 C585.28,399.58 607.34,399.06 607.94,398.21 C608.25,397.78 610.46,394.58 612.86,391.10 C622.59,377.01 632.60,371.00 647.70,370.21 C662.22,369.45 673.95,373.78 683.18,383.30 C687.81,388.07 692.97,396.73 692.99,399.75 C693.00,400.44 693.37,401.00 693.82,401.00 C694.27,401.00 695.14,404.74 695.75,409.32 C696.72,416.55 696.61,418.76 694.96,426.18 C692.47,437.35 691.89,438.74 687.61,443.87 C685.63,446.24 684.00,448.60 684.00,449.09 C684.00,449.59 683.12,450.00 682.04,450.00 C680.03,450.00 678.48,452.00 677.85,455.39 C677.52,457.16 678.76,457.88 682.75,458.23 C684.55,458.38 684.29,460.99 682.06,465.14 C680.05,468.90 680.28,473.00 682.51,473.00 C683.22,473.00 683.96,474.55 684.19,476.50 C684.41,478.42 684.21,480.00 683.73,480.00 C683.26,480.00 683.14,480.86 683.47,481.92 C683.89,483.22 683.09,484.96 681.01,487.34 C679.14,489.47 678.35,491.10 678.98,491.49 C679.56,491.85 679.76,492.58 679.43,493.11 C679.10,493.65 679.54,495.17 680.40,496.49 C682.37,499.50 681.74,501.20 677.43,504.49 C674.21,506.94 674.04,507.38 674.21,512.79 C674.54,522.92 673.37,527.22 669.61,529.67 C667.08,531.32 665.73,533.38 664.01,538.27 C661.64,544.98 658.84,549.17 653.12,554.57 C651.23,556.34 650.04,558.26 650.43,558.88 C650.83,559.54 650.10,560.39 648.66,560.94 C645.91,561.98 644.70,563.52 644.27,566.50 C643.95,568.76 640.49,572.00 638.40,572.00 C637.64,572.00 635.65,574.43 633.97,577.39 C631.99,580.91 629.88,583.22 627.93,584.03 C626.27,584.71 624.45,586.15 623.88,587.22 C623.31,588.29 621.19,589.86 619.17,590.70 C617.15,591.54 613.82,593.74 611.78,595.59 C609.73,597.44 606.92,599.23 605.53,599.58 C604.15,599.93 603.21,600.53 603.45,600.92 C604.14,602.03 598.14,605.20 596.86,604.41 C596.22,604.02 594.16,605.31 592.11,607.40 C590.13,609.44 586.09,612.92 583.15,615.15 C578.77,618.47 577.25,619.10 574.82,618.61 C573.18,618.29 570.95,618.49 569.87,619.07 C568.09,620.02 565.49,624.55 565.80,626.15 C565.87,626.50 565.04,626.56 563.96,626.28 C560.86,625.47 548.48,630.70 545.37,634.15 C544.05,635.61 542.24,636.00 536.85,636.00 C533.08,636.00 530.00,636.23 530.00,636.52 C530.00,637.61 535.68,645.78 541.23,652.67 C546.73,659.51 548.04,662.00 546.14,662.00 C545.66,662.00 543.58,663.35 541.50,665.00 C539.42,666.65 536.89,668.00 535.86,668.00 C534.66,668.00 534.00,668.72 534.00,670.03 C534.00,671.15 533.35,672.31 532.55,672.62 C530.90,673.25 521.84,668.63 518.05,665.21 C516.65,663.95 513.03,661.28 510.00,659.28 C506.98,657.27 504.14,655.04 503.70,654.31 C503.25,653.58 501.12,652.08 498.95,650.97 C496.78,649.87 495.00,648.54 495.00,648.03 C495.00,646.76 481.30,639.67 478.60,639.55 C477.39,639.49 475.33,638.45 474.01,637.23 C471.02,634.44 469.00,634.37 469.00,637.06 C469.00,638.19 468.55,638.84 468.00,638.50 C467.45,638.16 467.00,638.31 467.00,638.82 C467.00,640.51 462.60,641.04 461.72,639.47 C461.27,638.66 460.10,638.00 459.12,638.00 C458.14,638.00 457.03,637.70 456.67,637.34 C455.37,636.04 446.27,633.26 440.93,632.54 C437.94,632.14 434.73,631.67 433.78,631.50 C432.83,631.32 430.41,632.03 428.39,633.05 C425.70,634.43 424.23,634.66 422.86,633.93 C420.55,632.69 420.53,632.06 422.75,630.44 C425.06,628.75 423.88,627.75 418.73,627.06 C414.83,626.53 414.50,626.26 414.50,623.50 C414.50,620.78 414.13,620.45 410.50,619.87 C402.46,618.59 397.48,616.50 397.83,614.55 C398.06,613.24 397.71,612.90 396.56,613.34 C394.82,614.01 390.00,612.17 390.00,610.84 C390.00,610.38 388.64,610.00 386.98,610.00 C384.75,610.00 383.67,609.36 382.85,607.58 C382.25,606.24 380.57,604.86 379.13,604.50 C373.71,603.14 372.08,599.36 376.67,598.82 C378.14,598.64 379.55,597.87 379.80,597.11 C380.07,596.28 379.81,596.00 379.15,596.41 C377.46,597.45 370.54,595.25 368.53,593.03 C367.54,591.94 366.32,591.30 365.81,591.62 C365.30,591.93 363.79,591.91 362.46,591.58 C359.27,590.78 358.17,586.69 360.51,584.35 C362.13,582.73 362.12,582.56 360.42,581.32 C359.43,580.59 357.58,580.00 356.31,580.00 C355.04,580.00 354.00,579.62 354.00,579.15 C354.00,578.69 353.10,577.27 352.00,576.00 C350.90,574.73 350.00,573.08 350.00,572.32 C350.00,571.57 348.93,570.54 347.62,570.05 C345.71,569.32 345.35,568.62 345.77,566.44 C346.15,564.42 345.93,563.87 344.89,564.24 C344.13,564.52 343.61,565.26 343.75,565.88 C344.06,567.27 343.41,567.29 340.93,565.96 C339.87,565.40 339.00,564.16 339.00,563.21 C339.00,562.27 337.64,558.93 335.99,555.79 C334.33,552.65 333.05,549.72 333.15,549.29 C333.61,547.15 331.56,545.00 329.06,545.00 C326.82,545.00 326.15,544.38 325.26,541.50 C324.05,537.55 324.96,536.38 328.00,538.00 C330.64,539.41 331.99,538.53 331.45,535.73 C330.99,533.31 328.44,531.00 326.24,531.00 C325.46,531.00 325.00,530.23 325.19,529.25 C325.62,526.97 330.27,526.42 331.96,528.45 C334.93,532.03 337.07,529.33 336.67,522.50 C336.50,519.56 336.59,519.51 340.75,519.82 C347.00,520.28 346.32,518.01 337.85,510.14 C333.91,506.49 328.85,501.49 326.60,499.03 C324.34,496.57 317.46,489.41 311.29,483.12 C304.10,475.77 299.86,470.63 299.45,468.76 C298.97,466.61 298.65,465.83 298.50,466.08 C297.89,458.40 297.49,446.68 297.42,436.62 C297.48,437.24 297.57,437.48 297.66,437.25 C297.94,436.56 298.61,436.00 299.14,436.00 C299.68,436.00 305.56,440.61 312.20,446.25 C328.33,459.94 329.45,460.83 332.70,462.54 ZM 698.32 661.82 C696.62,664.32 696.47,668.71 696.00,727.45 C696.00,693.94 695.83,666.86 695.63,667.08 C695.30,667.46 694.85,682.13 693.48,736.00 C692.93,757.83 691.88,781.00 691.44,781.00 C691.25,781.00 690.04,779.99 688.75,778.75 C687.46,777.51 684.62,774.85 682.45,772.84 C680.28,770.83 677.48,767.82 676.23,766.16 C674.98,764.49 672.96,762.99 671.73,762.82 C669.46,762.49 667.78,758.00 669.93,758.00 C670.52,758.00 671.00,757.49 671.00,756.88 C671.00,756.16 669.91,755.97 667.98,756.35 C664.79,756.99 664.00,756.44 659.04,750.18 C657.68,748.47 655.32,746.79 653.78,746.45 C652.24,746.11 650.52,744.97 649.96,743.92 C648.76,741.67 649.74,741.49 652.35,743.46 C653.36,744.23 654.83,744.62 655.60,744.32 C657.11,743.74 657.54,739.45 656.17,738.60 C655.71,738.32 655.55,736.65 655.80,734.88 C656.19,732.23 655.99,731.79 654.64,732.31 C653.74,732.65 652.31,732.67 651.46,732.35 C649.74,731.69 646.00,724.95 646.00,722.51 C646.00,721.64 645.33,720.68 644.51,720.36 C643.68,720.05 643.26,719.39 643.56,718.90 C643.87,718.40 643.64,718.00 643.06,718.00 C642.48,718.00 642.00,717.13 642.00,716.06 C642.00,714.99 641.52,713.82 640.94,713.46 C640.36,713.10 639.96,711.84 640.05,710.65 C640.38,706.52 639.98,705.47 637.75,704.49 C635.92,703.69 635.36,702.37 634.76,697.51 C634.21,693.11 633.44,691.09 631.85,689.89 C629.88,688.40 629.76,687.68 630.38,681.60 C631.30,672.59 633.44,668.17 636.60,668.77 C639.68,669.36 640.85,666.60 638.58,664.09 C637.05,662.40 637.05,662.20 638.54,661.62 C639.43,661.28 640.91,660.97 641.83,660.94 C642.75,660.91 644.87,658.99 646.54,656.69 C648.21,654.39 650.91,651.87 652.54,651.09 C654.17,650.31 656.22,648.86 657.10,647.86 C657.98,646.86 658.94,646.28 659.23,646.57 C659.53,646.86 661.96,645.24 664.63,642.97 C667.31,640.70 671.23,637.42 673.35,635.67 C683.40,627.40 711.97,596.85 718.00,587.94 C718.83,586.72 720.46,584.55 721.63,583.11 C724.02,580.17 728.20,573.00 727.52,573.00 C727.50,573.00 727.47,573.02 727.43,573.05 C728.36,571.77 729.18,570.64 729.77,569.87 C731.27,567.87 733.77,564.07 735.33,561.44 C737.51,557.75 738.37,556.98 739.08,558.07 C739.60,558.88 739.98,579.90 739.96,606.73 C739.93,652.07 739.85,654.01 738.03,654.98 C736.98,655.55 729.18,656.00 720.53,656.00 C703.63,656.00 701.98,656.43 698.32,661.82 ZM 564.81 346.21 C573.80,347.30 585.93,340.17 587.54,332.84 C590.48,319.42 573.29,310.07 561.24,318.54 C557.06,321.48 554.45,328.29 554.84,335.25 C555.05,338.89 561.32,345.78 564.81,346.21 ZM 641.25 424.80 C646.86,427.67 649.40,427.57 651.47,424.41 C652.70,422.52 653.75,421.96 655.28,422.36 C657.71,423.00 663.24,419.93 665.50,416.70 C670.62,409.39 661.96,397.00 651.74,397.00 C647.34,397.00 641.27,399.50 638.79,402.33 C634.23,407.54 632.52,416.38 635.50,419.36 C636.33,420.18 637.00,421.25 637.00,421.74 C637.00,422.22 638.91,423.60 641.25,424.80 ZM 524.07 481.88 C526.78,485.54 527.77,485.67 533.00,483.00 C535.16,481.90 537.55,481.00 538.33,481.00 C539.10,481.00 540.87,480.10 542.27,479.00 C543.67,477.90 545.48,477.00 546.30,477.00 C547.11,477.00 548.73,476.21 549.90,475.25 C551.86,473.62 551.91,473.30 550.53,470.68 C549.71,469.13 549.15,467.38 549.27,466.79 C549.65,465.00 543.08,461.73 539.10,461.73 C533.24,461.73 528.75,463.68 525.64,467.58 C521.68,472.55 521.10,477.86 524.07,481.88 ZM 566.64 437.50 C569.37,440.22 572.64,439.06 570.98,435.96 C570.12,434.35 570.30,434.29 572.96,435.29 C575.20,436.14 576.47,436.09 578.34,435.09 C580.19,434.10 583.71,433.94 592.65,434.45 C599.17,434.82 605.33,435.36 606.35,435.66 C607.90,436.11 608.08,435.82 607.47,433.85 C607.08,432.56 606.59,431.32 606.40,431.11 C606.10,430.78 564.21,430.60 558.75,430.90 C557.58,430.97 557.00,431.82 557.00,433.50 C557.00,435.76 557.40,436.00 561.07,436.00 C563.36,436.00 565.80,436.66 566.64,437.50 ZM 684.77 768.39 C685.42,769.83 686.64,771.00 687.48,771.00 C689.06,771.00 689.27,769.15 688.15,765.21 C687.56,763.12 687.32,763.04 685.54,764.35 C683.85,765.58 683.74,766.14 684.77,768.39 ZM 545.14 432.11 C546.81,433.16 550.81,433.14 553.50,432.05 C555.09,431.41 554.55,431.10 550.82,430.52 C545.79,429.74 542.75,430.59 545.14,432.11 ZM 347.60 523.50 C349.83,525.19 350.68,525.32 351.43,524.11 C352.28,522.73 349.22,520.70 347.36,521.42 C345.85,522.00 345.87,522.19 347.60,523.50 ZM 499.00 450.58 C499.00,450.81 498.33,451.00 497.50,451.00 C495.88,451.00 495.43,448.47 496.90,447.56 C497.64,447.11 499.00,449.06 499.00,450.58 ZM 686.98 455.75 C686.99,456.99 686.55,458.00 686.00,458.00 C684.75,458.00 684.75,456.94 686.00,455.00 C686.78,453.79 686.97,453.93 686.98,455.75 ZM 636.00 721.06 C636.00,721.58 635.55,722.00 635.00,722.00 C634.45,722.00 634.00,721.30 634.00,720.44 C634.00,719.58 634.45,719.16 635.00,719.50 C635.55,719.84 636.00,720.54 636.00,721.06 ZM 319.63 341.67 C312.59,355.96 307.02,370.98 303.21,386.03 C306.69,371.69 312.36,356.39 319.63,341.67 ZM 683.81 780.15 C689.92,785.51 695.10,789.87 695.50,790.00 L 695.50 790.41 ZM 300.42 479.33 C302.19,488.22 303.99,495.79 306.08,502.86 C303.82,495.38 301.98,487.69 300.42,479.33 ZM 713.61 591.91 C709.89,596.62 705.88,601.29 701.61,605.91 C705.81,601.35 709.80,596.70 713.61,591.91 Z" fill="rgb(2,37,105)"/>
<path d="M 532.50 680.83 C528.65,677.45 522.46,671.84 518.75,668.36 C511.25,661.33 511.94,661.59 496.07,660.03 C419.69,652.51 352.83,605.61 319.19,535.95 C313.61,524.38 309.39,513.85 306.08,502.86 C303.99,495.79 302.19,488.22 300.42,479.33 C299.97,476.94 299.55,474.50 299.15,472.00 C298.91,470.56 298.70,468.52 298.50,466.08 C298.65,465.83 298.97,466.61 299.45,468.76 C299.86,470.63 304.10,475.77 311.29,483.12 C317.46,489.41 324.34,496.57 326.60,499.03 C328.85,501.49 333.91,506.49 337.85,510.14 C346.32,518.01 347.00,520.28 340.75,519.82 C336.59,519.51 336.50,519.56 336.67,522.50 C337.07,529.33 334.93,532.03 331.96,528.45 C330.27,526.42 325.62,526.97 325.19,529.25 C325.00,530.23 325.46,531.00 326.24,531.00 C328.44,531.00 330.99,533.31 331.45,535.73 C331.99,538.53 330.64,539.41 328.00,538.00 C324.96,536.38 324.05,537.55 325.26,541.50 C326.15,544.38 326.82,545.00 329.06,545.00 C331.56,545.00 333.61,547.15 333.15,549.29 C333.05,549.72 334.33,552.65 335.99,555.79 C337.64,558.93 339.00,562.27 339.00,563.21 C339.00,564.16 339.87,565.40 340.93,565.96 C343.41,567.29 344.06,567.27 343.75,565.88 C343.61,565.26 344.13,564.52 344.89,564.24 C345.93,563.87 346.15,564.42 345.77,566.44 C345.35,568.62 345.71,569.32 347.62,570.05 C348.93,570.54 350.00,571.57 350.00,572.32 C350.00,573.08 350.90,574.73 352.00,576.00 C353.10,577.27 354.00,578.69 354.00,579.15 C354.00,579.62 355.04,580.00 356.31,580.00 C357.58,580.00 359.43,580.59 360.42,581.32 C362.12,582.56 362.13,582.73 360.51,584.35 C358.17,586.69 359.27,590.78 362.46,591.58 C363.79,591.91 365.30,591.93 365.81,591.62 C366.32,591.30 367.54,591.94 368.53,593.03 C370.54,595.25 377.46,597.45 379.15,596.41 C379.81,596.00 380.07,596.28 379.80,597.11 C379.55,597.87 378.14,598.64 376.67,598.82 C372.08,599.36 373.71,603.14 379.13,604.50 C380.57,604.86 382.25,606.24 382.85,607.58 C383.67,609.36 384.75,610.00 386.98,610.00 C388.64,610.00 390.00,610.38 390.00,610.84 C390.00,612.17 394.82,614.01 396.56,613.34 C397.71,612.90 398.06,613.24 397.83,614.55 C397.48,616.50 402.46,618.59 410.50,619.87 C414.13,620.45 414.50,620.78 414.50,623.50 C414.50,626.26 414.83,626.53 418.73,627.06 C423.88,627.75 425.06,628.75 422.75,630.44 C420.53,632.06 420.55,632.69 422.86,633.93 C424.23,634.66 425.70,634.43 428.39,633.05 C430.41,632.03 432.83,631.32 433.78,631.50 C434.73,631.67 437.94,632.14 440.93,632.54 C446.27,633.26 455.37,636.04 456.67,637.34 C457.03,637.70 458.14,638.00 459.12,638.00 C460.10,638.00 461.27,638.66 461.72,639.47 C462.60,641.04 467.00,640.51 467.00,638.82 C467.00,638.31 467.45,638.16 468.00,638.50 C468.55,638.84 469.00,638.19 469.00,637.06 C469.00,634.37 471.02,634.44 474.01,637.23 C475.33,638.45 477.39,639.49 478.60,639.55 C481.30,639.67 495.00,646.76 495.00,648.03 C495.00,648.54 496.78,649.87 498.95,650.97 C501.12,652.08 503.25,653.58 503.70,654.31 C504.14,655.04 506.98,657.27 510.00,659.28 C513.03,661.28 516.65,663.95 518.05,665.21 C521.84,668.63 530.90,673.25 532.55,672.62 C533.35,672.31 534.00,671.15 534.00,670.03 C534.00,668.72 534.66,668.00 535.86,668.00 C536.89,668.00 539.42,666.65 541.50,665.00 C543.58,663.35 545.66,662.00 546.14,662.00 C548.04,662.00 546.73,659.51 541.23,652.67 C535.68,645.78 530.00,637.61 530.00,636.52 C530.00,636.23 533.08,636.00 536.85,636.00 C542.24,636.00 544.05,635.61 545.37,634.15 C548.48,630.70 560.86,625.47 563.96,626.28 C565.04,626.56 565.87,626.50 565.80,626.15 C565.49,624.55 568.09,620.02 569.87,619.07 C570.95,618.49 573.18,618.29 574.82,618.61 C577.25,619.10 578.77,618.47 583.15,615.15 C586.09,612.92 590.13,609.44 592.11,607.40 C594.16,605.31 596.22,604.02 596.86,604.41 C598.14,605.20 604.14,602.03 603.45,600.92 C603.21,600.53 604.15,599.93 605.53,599.58 C606.92,599.23 609.73,597.44 611.78,595.59 C613.82,593.74 617.15,591.54 619.17,590.70 C621.19,589.86 623.31,588.29 623.88,587.22 C624.45,586.15 626.27,584.71 627.93,584.03 C629.88,583.22 631.99,580.91 633.97,577.39 C635.65,574.43 637.64,572.00 638.40,572.00 C640.49,572.00 643.95,568.76 644.27,566.50 C644.70,563.52 645.91,561.98 648.66,560.94 C650.10,560.39 650.83,559.54 650.43,558.88 C650.04,558.26 651.23,556.34 653.12,554.57 C658.84,549.17 661.64,544.98 664.01,538.27 C665.73,533.38 667.08,531.32 669.61,529.67 C673.37,527.22 674.54,522.92 674.21,512.79 C674.04,507.38 674.21,506.94 677.43,504.49 C681.74,501.20 682.37,499.50 680.40,496.49 C679.54,495.17 679.10,493.65 679.43,493.11 C679.76,492.58 679.56,491.85 678.98,491.49 C678.35,491.10 679.14,489.47 681.01,487.34 C683.09,484.96 683.89,483.22 683.47,481.92 C683.14,480.86 683.26,480.00 683.73,480.00 C684.21,480.00 684.41,478.42 684.19,476.50 C683.96,474.55 683.22,473.00 682.51,473.00 C680.28,473.00 680.05,468.90 682.06,465.14 C684.29,460.99 684.55,458.38 682.75,458.23 C678.76,457.88 677.52,457.16 677.85,455.39 C678.48,452.00 680.03,450.00 682.04,450.00 C683.12,450.00 684.00,449.59 684.00,449.09 C684.00,448.60 685.63,446.24 687.61,443.87 C691.89,438.74 692.47,437.35 694.96,426.18 C696.61,418.76 696.72,416.55 695.75,409.32 C695.14,404.74 694.27,401.00 693.82,401.00 C693.37,401.00 693.00,400.44 692.99,399.75 C692.97,396.73 687.81,388.07 683.18,383.30 C673.95,373.78 662.22,369.45 647.70,370.21 C632.60,371.00 622.59,377.01 612.86,391.10 C610.46,394.58 608.25,397.78 607.94,398.21 C607.34,399.06 585.28,399.58 509.39,400.56 C467.23,401.10 461.21,400.99 460.71,399.68 C460.39,398.86 461.57,395.89 463.32,393.08 C465.07,390.26 470.42,381.56 475.22,373.73 C480.02,365.90 485.87,356.58 488.22,353.00 L 492.50 346.50 L 510.76 346.23 L 529.02 345.95 L 530.22 348.73 C530.88,350.25 532.74,353.52 534.35,356.00 C546.15,374.05 566.82,381.22 587.34,374.39 C594.31,372.06 595.99,370.98 602.40,364.63 C608.22,358.87 610.16,356.12 612.41,350.49 C620.93,329.15 613.18,305.78 593.94,294.76 C585.87,290.15 579.70,288.73 569.65,289.18 C561.64,289.54 559.56,290.05 552.95,293.24 C544.32,297.41 537.07,304.35 532.01,313.33 L 528.81 319.00 L 506.65 319.01 C483.21,319.01 478.62,319.63 475.26,323.25 C473.27,325.39 465.43,337.60 440.73,377.00 C434.70,386.62 428.67,395.96 427.33,397.75 L 424.90 401.00 L 364.38 401.00 C324.58,401.00 303.21,401.35 301.93,402.04 C301.00,402.53 300.42,402.74 300.18,402.24 C300.84,397.05 301.86,391.61 303.21,386.03 C307.02,370.98 312.59,355.96 319.63,341.68 L 319.63 341.67 C323.77,333.32 328.41,325.15 333.47,317.46 C337.46,311.39 341.35,305.75 342.11,304.94 C342.87,304.12 345.52,300.99 347.99,297.98 C369.72,271.47 400.79,248.27 432.00,235.24 C452.94,226.51 470.89,221.88 495.44,218.91 C506.16,217.61 538.05,218.28 548.00,220.02 C551.03,220.55 556.42,221.42 560.00,221.95 C566.90,222.99 577.18,225.46 580.50,226.88 C581.60,227.35 585.65,228.72 589.50,229.92 C628.38,242.03 669.44,272.05 696.01,307.77 C742.67,370.53 752.95,452.83 723.04,524.32 C694.68,592.14 634.77,641.83 563.52,656.63 C556.94,658.00 551.38,659.28 551.18,659.48 C550.99,659.68 553.43,662.24 556.62,665.17 C564.35,672.28 572.00,680.20 572.00,681.09 C572.00,681.49 568.74,682.35 564.75,682.99 C560.76,683.64 555.47,684.57 553.00,685.05 L 552.97 685.06 C545.92,686.45 542.76,687.07 540.05,686.22 C537.85,685.53 535.95,683.86 532.50,680.83 ZM 332.70 462.54 C329.45,460.83 328.33,459.94 312.20,446.25 C305.56,440.61 299.68,436.00 299.14,436.00 C298.61,436.00 297.94,436.56 297.66,437.25 C297.57,437.48 297.48,437.24 297.42,436.62 C297.38,431.41 297.42,426.66 297.58,423.14 C297.62,423.12 297.67,423.29 297.72,423.68 C298.11,426.79 298.25,426.87 304.31,427.43 C307.71,427.75 345.83,428.21 389.00,428.45 C470.31,428.90 520.28,429.69 527.92,430.63 C531.05,431.01 531.92,431.43 530.92,432.07 C530.14,432.57 528.53,432.98 527.34,432.98 C523.74,433.01 512.95,438.66 508.60,442.80 C503.95,447.21 500.17,451.57 497.67,455.39 C496.72,456.82 495.29,458.00 494.48,458.00 C493.66,458.00 493.00,458.41 493.00,458.92 C493.00,459.42 489.74,460.08 485.75,460.37 C481.76,460.67 475.58,461.14 472.00,461.42 C468.42,461.70 462.27,461.47 458.31,460.91 C452.60,460.09 450.55,460.17 448.31,461.27 C446.12,462.35 438.62,462.69 414.50,462.83 C397.45,462.93 372.70,463.24 359.50,463.51 C339.62,463.92 335.02,463.75 332.70,462.54 ZM 683.81 780.15 C677.39,774.51 671.99,769.58 671.81,769.19 C671.64,768.81 669.47,766.84 667.00,764.82 C664.53,762.79 661.33,760.09 659.89,758.82 C654.07,753.65 638.13,739.15 632.50,733.91 C629.20,730.84 617.05,719.86 605.50,709.52 C575.72,682.85 574.73,681.93 575.22,681.44 C575.46,681.20 580.93,679.45 587.38,677.56 C603.38,672.85 613.13,668.99 629.00,661.06 C640.04,655.55 665.02,640.44 667.00,638.07 C667.28,637.74 671.78,633.84 677.00,629.40 C686.01,621.74 694.15,613.98 701.61,605.91 C705.88,601.29 709.88,596.62 713.61,591.91 L 713.61 591.91 C716.81,587.88 719.88,583.75 722.85,579.50 C724.26,577.48 725.97,575.07 727.43,573.05 C727.47,573.02 727.50,573.00 727.52,573.00 C728.20,573.00 724.02,580.17 721.63,583.11 C720.46,584.55 718.83,586.72 718.00,587.94 C711.97,596.85 683.40,627.40 673.35,635.67 C671.23,637.42 667.31,640.70 664.63,642.97 C661.96,645.24 659.53,646.86 659.23,646.57 C658.94,646.28 657.98,646.86 657.10,647.86 C656.22,648.86 654.17,650.31 652.54,651.09 C650.91,651.87 648.21,654.39 646.54,656.69 C644.87,658.99 642.75,660.91 641.83,660.94 C640.91,660.97 639.43,661.28 638.54,661.62 C637.05,662.20 637.05,662.40 638.58,664.09 C640.85,666.60 639.68,669.36 636.60,668.77 C633.44,668.17 631.30,672.59 630.38,681.60 C629.76,687.68 629.88,688.40 631.85,689.89 C633.44,691.09 634.21,693.11 634.76,697.51 C635.36,702.37 635.92,703.69 637.75,704.49 C639.98,705.47 640.38,706.52 640.05,710.65 C639.96,711.84 640.36,713.10 640.94,713.46 C641.52,713.82 642.00,714.99 642.00,716.06 C642.00,717.13 642.48,718.00 643.06,718.00 C643.64,718.00 643.87,718.40 643.56,718.90 C643.26,719.39 643.68,720.05 644.51,720.36 C645.33,720.68 646.00,721.64 646.00,722.51 C646.00,724.95 649.74,731.69 651.46,732.35 C652.31,732.67 653.74,732.65 654.64,732.31 C655.99,731.79 656.19,732.23 655.80,734.88 C655.55,736.65 655.71,738.32 656.17,738.60 C657.54,739.45 657.11,743.74 655.60,744.32 C654.83,744.62 653.36,744.23 652.35,743.46 C649.74,741.49 648.76,741.67 649.96,743.92 C650.52,744.97 652.24,746.11 653.78,746.45 C655.32,746.79 657.68,748.47 659.04,750.18 C664.00,756.44 664.79,756.99 667.98,756.35 C669.91,755.97 671.00,756.16 671.00,756.88 C671.00,757.49 670.52,758.00 669.93,758.00 C667.78,758.00 669.46,762.49 671.73,762.82 C672.96,762.99 674.98,764.49 676.23,766.16 C677.48,767.82 680.28,770.83 682.45,772.84 C684.62,774.85 687.46,777.51 688.75,778.75 C690.04,779.99 691.25,781.00 691.44,781.00 C691.88,781.00 692.93,757.83 693.48,736.00 C694.85,682.13 695.30,667.46 695.63,667.08 C695.83,666.86 696.00,693.94 696.00,727.45 L 695.50 790.00 C695.10,789.87 689.92,785.51 683.81,780.15 ZM 564.81 346.21 C561.32,345.78 555.05,338.89 554.84,335.25 C554.45,328.29 557.06,321.48 561.24,318.54 C573.29,310.07 590.48,319.42 587.54,332.84 C585.93,340.17 573.80,347.30 564.81,346.21 ZM 641.25 424.80 C638.91,423.60 637.00,422.22 637.00,421.74 C637.00,421.25 636.33,420.18 635.50,419.36 C632.52,416.38 634.23,407.54 638.79,402.33 C641.27,399.50 647.34,397.00 651.74,397.00 C661.96,397.00 670.62,409.39 665.50,416.70 C663.24,419.93 657.71,423.00 655.28,422.36 C653.75,421.96 652.70,422.52 651.47,424.41 C649.40,427.57 646.86,427.67 641.25,424.80 ZM 524.07 481.88 C521.10,477.86 521.68,472.55 525.64,467.58 C528.75,463.68 533.24,461.73 539.10,461.73 C543.08,461.73 549.65,465.00 549.27,466.79 C549.15,467.38 549.71,469.13 550.53,470.68 C551.91,473.30 551.86,473.62 549.90,475.25 C548.73,476.21 547.11,477.00 546.30,477.00 C545.48,477.00 543.67,477.90 542.27,479.00 C540.87,480.10 539.10,481.00 538.33,481.00 C537.55,481.00 535.16,481.90 533.00,483.00 C527.77,485.67 526.78,485.54 524.07,481.88 ZM 566.64 437.50 C565.80,436.66 563.36,436.00 561.07,436.00 C557.40,436.00 557.00,435.76 557.00,433.50 C557.00,431.82 557.58,430.97 558.75,430.90 C564.21,430.60 606.10,430.78 606.40,431.11 C606.59,431.32 607.08,432.56 607.47,433.85 C608.08,435.82 607.90,436.11 606.35,435.66 C605.33,435.36 599.17,434.82 592.65,434.45 C583.71,433.94 580.19,434.10 578.34,435.09 C576.47,436.09 575.20,436.14 572.96,435.29 C570.30,434.29 570.12,434.35 570.98,435.96 C572.64,439.06 569.37,440.22 566.64,437.50 ZM 684.77 768.39 C683.74,766.14 683.85,765.58 685.54,764.35 C687.32,763.04 687.56,763.12 688.15,765.21 C689.27,769.15 689.06,771.00 687.48,771.00 C686.64,771.00 685.42,769.83 684.77,768.39 ZM 545.14 432.11 C542.75,430.59 545.79,429.74 550.82,430.52 C554.55,431.10 555.09,431.41 553.50,432.05 C550.81,433.14 546.81,433.16 545.14,432.11 ZM 347.60 523.50 C345.87,522.19 345.85,522.00 347.36,521.42 C349.22,520.70 352.28,522.73 351.43,524.11 C350.68,525.32 349.83,525.19 347.60,523.50 ZM 499.00 450.58 C499.00,449.06 497.64,447.11 496.90,447.56 C495.43,448.47 495.88,451.00 497.50,451.00 C498.33,451.00 499.00,450.81 499.00,450.58 ZM 686.98 455.75 C686.97,453.93 686.78,453.79 686.00,455.00 C684.75,456.94 684.75,458.00 686.00,458.00 C686.55,458.00 686.99,456.99 686.98,455.75 ZM 636.00 721.06 C636.00,720.54 635.55,719.84 635.00,719.50 C634.45,719.16 634.00,719.58 634.00,720.44 C634.00,721.30 634.45,722.00 635.00,722.00 C635.55,722.00 636.00,721.58 636.00,721.06 Z" fill="rgb(1,69,141)"/>
<path d="M 0.00 512.00 L 0.00 0.00 L 512.00 0.00 L 1024.00 0.00 L 1024.00 512.00 L 1024.00 1024.00 L 512.00 1024.00 L 0.00 1024.00 L 0.00 512.00 ZM 716.73 831.40 C717.96,830.62 719.76,828.52 720.73,826.74 C722.37,823.74 722.51,818.40 722.70,754.13 C722.81,715.98 723.19,684.48 723.54,684.13 C723.89,683.78 730.25,683.63 737.68,683.80 C754.73,684.18 759.77,682.81 763.80,676.72 L 766.50 672.64 L 766.30 544.57 C766.10,411.61 766.14,413.05 762.02,389.15 C760.21,378.63 752.25,354.36 745.82,339.73 C730.64,305.18 706.75,273.30 678.50,249.87 C644.18,221.40 610.52,205.03 567.92,196.11 C548.70,192.08 543.58,191.60 520.00,191.58 C492.54,191.56 479.55,193.14 459.00,199.02 C441.73,203.96 434.06,206.56 429.16,209.13 C426.23,210.68 422.31,212.23 420.45,212.58 C418.59,212.92 416.58,213.80 415.98,214.53 C415.00,215.71 402.90,222.00 401.61,222.00 C401.33,222.00 398.20,224.02 394.66,226.50 C391.12,228.98 387.54,231.00 386.72,231.00 C385.89,231.00 384.96,231.65 384.66,232.45 C384.35,233.25 382.36,234.80 380.23,235.88 C378.11,236.97 375.75,238.59 375.00,239.50 C374.25,240.41 372.03,241.97 370.07,242.98 C368.11,243.98 363.38,247.77 359.56,251.40 C355.74,255.02 351.84,258.23 350.90,258.53 C349.95,258.83 348.45,260.19 347.57,261.54 C346.68,262.89 345.40,264.00 344.73,264.01 C342.18,264.03 323.27,285.46 313.86,299.00 C296.45,324.05 285.05,348.68 277.99,376.47 C274.37,390.73 273.45,395.79 271.02,414.50 C270.34,419.74 269.99,479.24 269.99,586.87 L 270.00 751.23 L 272.25 750.57 C276.85,749.21 285.66,748.82 290.70,749.75 C294.96,750.54 296.00,750.45 296.46,749.24 C296.77,748.44 297.01,710.64 296.99,665.25 C296.97,619.85 297.16,582.50 297.42,582.25 C297.67,581.99 298.54,583.29 299.33,585.14 C308.55,606.49 312.44,614.30 323.73,634.00 C335.24,654.10 352.49,678.51 366.82,695.00 C376.11,705.69 402.28,731.46 411.39,738.88 C439.23,761.60 458.46,774.41 487.00,789.24 C529.67,811.42 580.52,826.73 625.65,830.98 C632.17,831.60 641.55,832.49 646.50,832.98 C660.65,834.36 713.97,833.16 716.73,831.40 ZM 292.21 831.45 C298.53,829.29 304.39,823.96 307.57,817.44 C312.47,807.44 309.80,795.68 300.76,787.34 C294.70,781.76 287.67,779.48 280.96,780.91 C270.34,783.19 261.47,790.25 258.58,798.71 C256.57,804.61 256.58,808.70 258.62,814.72 C263.49,829.10 277.95,836.30 292.21,831.45 ZM 634.49 804.44 C549.29,796.99 469.80,760.09 407.66,699.15 C388.07,679.94 363.41,649.38 356.10,635.25 C354.52,632.21 355.48,632.47 362.50,636.98 C386.74,652.56 413.06,666.18 435.50,674.75 C444.19,678.07 465.77,683.55 484.00,687.07 C496.63,689.51 517.62,690.19 533.00,688.65 C541.47,687.81 541.51,687.82 544.54,690.65 C555.83,701.22 596.29,738.21 610.00,750.50 C619.08,758.63 631.25,769.87 637.06,775.49 C642.86,781.11 648.94,786.53 650.56,787.54 C652.18,788.55 656.42,791.90 660.00,794.98 C663.58,798.06 667.74,801.52 669.25,802.68 C671.49,804.40 671.71,804.90 670.42,805.39 C667.96,806.34 651.03,805.89 634.49,804.44 Z" fill="rgb(254,254,254)"/>
</g>
</svg>